<?xml version="1.0" standalone="no"?>
<!DOCTYPE svg PUBLIC "-//W3C//DTD SVG 1.1//EN" "http://www.w3.org/Graphics/SVG/1.1/DTD/svg11.dtd">
<svg xmlns="http://www.w3.org/2000/svg">
<metadata>Copyright (C) 2019 by original authors @ fontello.com</metadata>
<defs>
<font id="fontello" horiz-adv-x="1000" >
<font-face font-family="fontello" font-weight="400" font-stretch="normal" units-per-em="1000" ascent="850" descent="-150" />
<missing-glyph horiz-adv-x="1000" />
<glyph glyph-name="add_col_after" unicode="&#xe800;" d="M208 267c115 0 209-94 209-209 0-115-94-208-209-208-115 0-208 93-208 208 0 115 93 209 208 209z m105-248c21 0 39 18 39 39 0 22-18 39-39 39l-53 0c-7 0-13 6-13 13l0 53c0 21-17 39-39 39-21 0-39-18-39-39l0-53c0-7-6-13-13-13l-52 0c-21 0-39-17-39-39 0-21 18-39 39-39l52 0c7 0 13-6 13-13l0-52c0-21 18-39 39-39 22 0 39 18 39 39l0 52c0 7 6 13 13 13l53 0z m354 39c0-69 56-125 125-125 69 0 125 56 125 125l0 584c0 69-56 125-125 125-69 0-125-56-125-125l0-584z m-84 0l0 584c0 115 94 208 209 208 115 0 208-93 208-208l0-584c0-115-93-208-208-208-115 0-209 93-209 208z" horiz-adv-x="1000" />

<glyph glyph-name="add_col_before" unicode="&#xe802;" d="M792 267c115 0 208-94 208-209 0-115-93-208-208-208-115 0-209 93-209 208 0 115 94 209 209 209z m104-248c21 0 39 18 39 39 0 22-18 39-39 39l-52 0c-7 0-13 6-13 13l0 53c0 21-18 39-39 39-22 0-39-18-39-39l0-53c0-7-6-13-13-13l-52 0c-22 0-40-17-40-39 0-21 18-39 40-39l52 0c7 0 13-6 13-13l0-52c0-21 17-39 39-39 21 0 39 18 39 39l0 52c0 7 6 13 13 13l52 0z m-813 39c0-69 56-125 125-125 69 0 125 56 125 125l0 584c0 69-56 125-125 125-69 0-125-56-125-125l0-584z m-83 0l0 584c0 115 93 208 208 208 115 0 209-93 209-208l0-584c0-115-94-208-209-208-115 0-208 93-208 208z" horiz-adv-x="1000" />

<glyph glyph-name="add_row_after" unicode="&#xe803;" d="M792 850c115 0 208-93 208-208 0-115-93-209-208-209-115 0-209 94-209 209 0 115 94 208 209 208z m104-247c21 0 39 17 39 39 0 21-18 39-39 39l-52 0c-7 0-13 6-13 13l0 52c0 21-18 39-39 39-22 0-39-18-39-39l0-52c0-7-6-13-13-13l-52 0c-22 0-40-18-40-39 0-22 18-39 40-39l52 0c7 0 13-6 13-13l0-52c0-22 17-40 39-40 21 0 39 18 39 40l0 52c0 7 6 13 13 13l52 0z m-688-420c-69 0-125-56-125-125 0-69 56-125 125-125l584 0c69 0 125 56 125 125 0 69-56 125-125 125l-584 0z m0 84l584 0c115 0 208-94 208-209 0-115-93-208-208-208l-584 0c-115 0-208 93-208 208 0 115 93 209 208 209z" horiz-adv-x="1000" />

<glyph glyph-name="add_row_before" unicode="&#xe804;" d="M792 267c115 0 208-94 208-209 0-115-93-208-208-208-115 0-209 93-209 208 0 115 94 209 209 209z m104-248c21 0 39 18 39 39 0 22-18 39-39 39l-52 0c-7 0-13 6-13 13l0 53c0 21-18 39-39 39-22 0-39-18-39-39l0-53c0-7-6-13-13-13l-52 0c-22 0-40-17-40-39 0-21 18-39 40-39l52 0c7 0 13-6 13-13l0-52c0-21 17-39 39-39 21 0 39 18 39 39l0 52c0 7 6 13 13 13l52 0z m-688 748c-69 0-125-56-125-125 0-69 56-125 125-125l584 0c69 0 125 56 125 125 0 69-56 125-125 125l-584 0z m0 83l584 0c115 0 208-93 208-208 0-115-93-209-208-209l-584 0c-115 0-208 94-208 209 0 115 93 208 208 208z" horiz-adv-x="1000" />

<glyph glyph-name="bold" unicode="&#xe805;" d="M716 393a261 261 0 0 1-181 447h-356a52 52 0 0 1 0-104h42a10 10 0 0 0 11-11v-750a10 10 0 0 0-11-10h-42a52 52 0 1 1 0-105h415a281 281 0 0 1 122 533z m-181 343a157 157 0 0 0 0-314h-189a10 10 0 0 0-10 11v292a10 10 0 0 0 10 10z m59-771h-248a10 10 0 0 0-10 10v333a10 10 0 0 0 10 10h189c1 0 2 0 2 0l1 0h56a177 177 0 0 0 0-353z" horiz-adv-x="1000" />

<glyph glyph-name="checklist" unicode="&#xe806;" d="M875 850h-750a125 125 0 0 1-125-125v-750a125 125 0 0 1 125-125h750a125 125 0 0 1 125 125v750a125 125 0 0 1-125 125z m42-875a42 42 0 0 0-42-42h-750a42 42 0 0 0-42 42v750a42 42 0 0 0 42 42h750a42 42 0 0 0 42-42z m-448 688a52 52 0 0 1-73-11l-89-119-20 20a52 52 0 0 1-74-73l63-63a53 53 0 0 1 78 6l125 167a52 52 0 0 1-10 73z m0-375a52 52 0 0 1-73-11l-89-119-20 20a52 52 0 1 1-74-73l63-63a53 53 0 0 1 78 6l125 167a52 52 0 0 1-10 73z m302 239h-188a52 52 0 0 1 0-104h188a52 52 0 0 1 0 104z m0-333h-188a52 52 0 0 1 0-104h188a52 52 0 1 1 0 104z" horiz-adv-x="1000" />

<glyph glyph-name="combine_cells" unicode="&#xe807;" d="M83 58c0-69 56-125 125-125l584 0c69 0 125 56 125 125l0 584c0 69-56 125-125 125l-584 0c-69 0-125-56-125-125l0-584z m-83 0l0 584c0 115 93 208 208 208l584 0c115 0 208-93 208-208l0-584c0-115-93-208-208-208l-584 0c-115 0-208 93-208 208z m500 375c23 0 42-18 42-41l0-84c0-23-19-41-42-41-23 0-42 18-42 41l0 84c0 23 19 41 42 41z m0-250c23 0 42-18 42-41l0-125c0-23-19-42-42-42-23 0-42 19-42 42l0 125c0 23 19 41 42 41z m0 542c23 0 42-19 42-42l0-125c0-23-19-41-42-41-23 0-42 18-42 41l0 125c0 23 19 42 42 42z" horiz-adv-x="1000" />

<glyph glyph-name="code" unicode="&#xe808;" d="M381-48a52 52 0 0 0-37 16l-309 317a94 94 0 0 0 0 130l309 317a52 52 0 0 0 75-72l-288-295a21 21 0 0 1 0-30l288-295a52 52 0 0 0-38-88z m238 0a52 52 0 0 0-38 88l288 296a21 21 0 0 1 0 29l-288 295a52 52 0 0 0 75 73l309-318a94 94 0 0 0 0-130l-309-317a52 52 0 0 0-37-16z m271 391h0z" horiz-adv-x="1000" />

<glyph glyph-name="delete_row" unicode="&#xe809;" d="M552 225c-17-25-31-53-40-83l-304 0c-115 0-208 93-208 208 0 115 93 208 208 208l584 0c115 0 208-93 208-208 0-26-5-51-14-74-21 19-46 35-72 47 2 9 3 18 3 27 0 69-56 125-125 125l-584 0c-69 0-125-56-125-125 0-69 56-125 125-125l344 0z m240 42c115 0 208-94 208-209 0-115-93-208-208-208-115 0-209 93-209 208 0 115 94 209 209 209z m-104-248l208 0c21 0 39 18 39 39 0 22-18 39-39 39l-208 0c-22 0-40-17-40-39 0-21 18-39 40-39z" horiz-adv-x="1000" />

<glyph glyph-name="delete_col" unicode="&#xe80a;" d="M527-64c12-26 28-51 47-72-23-9-48-14-74-14-115 0-208 93-208 208l0 584c0 115 93 208 208 208 115 0 208-93 208-208l0-304c-30-9-58-23-83-40l0 344c0 69-56 125-125 125-69 0-125-56-125-125l0-584c0-69 56-125 125-125 9 0 18 1 27 3z m265 331c115 0 208-94 208-209 0-115-93-208-208-208-115 0-209 93-209 208 0 115 94 209 209 209z m-104-248l208 0c21 0 39 18 39 39 0 22-18 39-39 39l-208 0c-22 0-40-17-40-39 0-21 18-39 40-39z" horiz-adv-x="1000" />

<glyph glyph-name="delete_table" unicode="&#xe80b;" d="M792 267c115 0 208-94 208-209 0-115-93-208-208-208-115 0-209 93-209 208 0 115 94 209 209 209z m-104-248l208 0c21 0 39 18 39 39 0 22-18 39-39 39l-208 0c-22 0-40-17-40-39 0-21 18-39 40-39z m-176 123l-137 0 0-209 153 0c15-31 35-59 60-83l-380 0c-115 0-208 93-208 208l0 584c0 115 93 208 208 208l584 0c115 0 208-93 208-208l0-118c1-2 1-5 1-7 0-3 0-5-1-8l0-246c-24 24-52 44-83 59l0 153-209 0 0-137c-30-9-58-23-83-40l0 177-250 0 0-250 177 0c-17-25-31-53-40-83z m196 416l209 0 0 84c0 69-56 125-125 125l-84 0 0-209z m-83 0l0 209-250 0 0-209 250 0z m-333 209l-84 0c-69 0-125-56-125-125l0-84 209 0 0 209z m-209-292l0-250 209 0 0 250-209 0z m0-333l0-84c0-69 56-125 125-125l84 0 0 209-209 0z" horiz-adv-x="1000" />

<glyph glyph-name="github" unicode="&#xe80c;" d="M500 829c-265 0-479-214-479-479 0-212 137-391 328-455 24-4 31 10 31 23 0 11 0 43 0 83-133-29-161 63-161 63-22 56-53 70-53 70-43 30 3 29 3 29 48-3 74-49 74-49 42-73 112-52 139-40 5 31 17 52 31 64-107 12-219 53-219 237 0 52 19 95 50 129-5 12-22 61 4 127 0 0 41 12 132-50 38 11 79 16 120 17 41-1 82-6 120-17 92 62 132 50 132 50 26-66 9-115 4-127 31-34 50-77 50-129 0-184-112-224-219-236 17-15 33-44 33-89 0-60 0-117 0-132 0-13 8-27 32-23 190 64 327 243 327 455 0 265-214 479-479 479z" horiz-adv-x="1000" />

<glyph glyph-name="image" unicode="&#xe80d;" d="M705 487a43 43 0 0 1-38 23 42 42 0 0 1-37-24l-65-143a10 10 0 0 0-18-3l-34 43a42 42 0 0 1-34 16 42 42 0 0 1-33-18l-130-186a21 21 0 0 1 17-32h500a21 21 0 0 1 18 9 21 21 0 0 1 1 21z m212 363h-688a83 83 0 0 1-83-83v-688a83 83 0 0 1 83-83h688a83 83 0 0 1 83 83v688a83 83 0 0 1-83 83z m-6-765a21 21 0 0 0-15-6h-646a21 21 0 0 0-21 21v646a21 21 0 0 0 21 21h646a21 21 0 0 0 21-21v-646a21 21 0 0 0-6-15z m-98-152h-709a21 21 0 0 0-21 21v709a42 42 0 0 1-83 0v-730a83 83 0 0 1 83-83h730a42 42 0 0 1 0 83z" horiz-adv-x="1000" />

<glyph glyph-name="italic" unicode="&#xe80e;" d="M938 840h-319a52 52 0 0 1 0-104h46a10 10 0 0 0 8-16l-474-746a21 21 0 0 0-17-9h-119a52 52 0 0 1 0-105h318a52 52 0 0 1 0 105h-45a10 10 0 0 0-9 16l474 745a21 21 0 0 0 17 10h120a52 52 0 0 1 0 104z" horiz-adv-x="1000" />

<glyph glyph-name="link" unicode="&#xe80f;" d="M517 229a42 42 0 0 1-23-54 42 42 0 0 0-9-46l-118-118a83 83 0 0 0-117 0l-89 89a83 83 0 0 0 0 118l118 117a42 42 0 0 0 46 9 42 42 0 0 1 31 77 126 126 0 0 1-136-27l-118-118a167 167 0 0 1 0-235l89-89a167 167 0 0 1 235 0l118 118a125 125 0 0 1 27 136 42 42 0 0 1-54 23z m-194-56a42 42 0 0 1 59 0l324 324a42 42 0 0 1-59 59l-324-324a42 42 0 0 1 0-59z m575 486l-89 89a167 167 0 0 1-235 0l-118-118a125 125 0 0 1-27-136 42 42 0 1 1 77 32 42 42 0 0 0 9 45l118 118a83 83 0 0 0 118 0l88-89a83 83 0 0 0 0-118l-118-117a42 42 0 0 0-46-9 42 42 0 0 1-31-77 126 126 0 0 1 136 27l118 118a167 167 0 0 1 0 235z" horiz-adv-x="1000" />

<glyph glyph-name="mention" unicode="&#xe810;" d="M500 829a485 485 0 0 1-489-479 485 485 0 0 1 489-479 493 493 0 0 1 276 83 52 52 0 1 1-58 87 389 389 0 0 0-218-66 381 381 0 0 0-385 375 381 381 0 0 0 385 375 381 381 0 0 0 385-375v-37a81 81 0 0 0-162 0v37a223 223 0 1 1-223-219 224 224 0 0 1 161 68 185 185 0 0 1 328 114v37a485 485 0 0 1-489 479z m0-594a115 115 0 1 0 119 115 117 117 0 0 0-119-115z" horiz-adv-x="1000" />

<glyph glyph-name="paragraph" unicode="&#xe811;" d="M938 840h-637a291 291 0 1 1 0-582h97a10 10 0 0 0 10-10v-336a52 52 0 0 1 104 0v813a10 10 0 0 0 11 10h153a10 10 0 0 0 11-10v-813a52 52 0 0 1 104 0v813a10 10 0 0 0 10 10h137a52 52 0 0 1 0 105z m-530-467a10 10 0 0 0-10-11h-97a187 187 0 1 0 0 374h97a10 10 0 0 0 10-11z" horiz-adv-x="1000" />

<glyph glyph-name="ol" unicode="&#xe812;" d="M323 663h625a42 42 0 0 1 0 83h-625a42 42 0 0 1 0-83z m625-271h-625a42 42 0 1 1 0-84h625a42 42 0 0 1 0 84z m0-354h-625a42 42 0 0 1 0-84h625a42 42 0 0 1 0 84z m-856 93a83 83 0 0 1-80-61 31 31 0 1 1 60-17 21 21 0 1 0 20-26 31 31 0 1 1 0-62 21 21 0 1 0-20-27 31 31 0 1 1-60-17 83 83 0 1 1 149 69 11 11 0 0 0 0 12 83 83 0 0 1-69 129z m85 271a83 83 0 0 1-167 0 31 31 0 0 1 63 0 21 21 0 0 0 42 0 43 43 0 0 0-10-27l-88-109a31 31 0 0 1 25-51h104a31 31 0 0 1 0 62h-18a10 10 0 0 0-8 17l34 42a106 106 0 0 1 23 66z m-10 229h-11a10 10 0 0 0-10 11v140a57 57 0 0 1-57 58h-26a31 31 0 0 1 0-63h10a10 10 0 0 0 10-10v-125a10 10 0 0 0-10-11h-10a31 31 0 0 1 0-62h104a31 31 0 0 1 0 62z" horiz-adv-x="1000" />

<glyph glyph-name="quote" unicode="&#xe813;" d="M773 686a206 206 0 1 1 0-412 192 192 0 0 1 47 6 10 10 0 0 0 11-15 285 285 0 0 0-245-147 52 52 0 0 1 0-104 405 405 0 0 1 393 415v51a206 206 0 0 1-206 206z m-513 0a206 206 0 0 1 0-412 192 192 0 0 1 46 6 10 10 0 0 0 12-15 285 285 0 0 0-245-147 52 52 0 0 1 0-104 405 405 0 0 1 393 415v51a206 206 0 0 1-206 206z" horiz-adv-x="1000" />

<glyph glyph-name="redo" unicode="&#xe814;" d="M942 843a21 21 0 0 1-23-4l-108-108a10 10 0 0 0-12-2 522 522 0 0 1-540-36 511 511 0 0 1-5-828 52 52 0 0 1 62 84 407 407 0 0 0 4 659 417 417 0 0 0 394 46 10 10 0 0 0 3-17l-77-77a21 21 0 0 1 15-36h279a21 21 0 0 1 21 21v279a21 21 0 0 1-13 19z" horiz-adv-x="1000" />

<glyph glyph-name="remove" unicode="&#xe815;" d="M854 704a500 500 0 1 1 146-354 500 500 0 0 1-146 354z m-74-634a396 396 0 1 0 116 280 396 396 0 0 0-116-280z m-72 488a53 53 0 0 1-75 0l-133-132-132 132a53 53 0 0 1-75-75l132-133-132-132a53 53 0 0 1 75-75l132 132 133-132a53 53 0 0 1 75 75l-133 132 133 133a53 53 0 0 1 0 75z" horiz-adv-x="1000" />

<glyph glyph-name="strike" unicode="&#xe816;" d="M990 310a52 52 0 0 1-52 53h-373a21 21 0 0 0-12 3c-30 22-61 41-92 60-117 71-187 121-187 203 0 93 92 107 146 107a189 189 0 0 0 129-32 111 111 0 0 0 18-83l0-13a52 52 0 1 1 105 0l0 12a204 204 0 0 1-49 157c-42 42-108 63-202 63-153 0-251-83-251-211 0-116 78-188 166-247a10 10 0 0 0-6-20h-267a52 52 0 0 1 0-104h457a11 11 0 0 0 7-2 181 181 0 0 0 80-145c0-136-143-146-186-146-76 0-131 16-160 49a141 141 0 0 0-27 112 52 52 0 0 1-104 10 240 240 0 0 1 53-192c50-56 130-84 237-84 174 0 291 101 291 251a253 253 0 0 1-35 131 10 10 0 0 0 9 16h253a52 52 0 0 1 52 52z" horiz-adv-x="1000" />

<glyph glyph-name="table" unicode="&#xe817;" d="M708 142l0-209 84 0c69 0 125 56 125 125l0 84-209 0z m-83 0l-250 0 0-209 250 0 0 209z m83 83l209 0 0 250-209 0 0-250z m-83 0l0 250-250 0 0-250 250 0z m83 333l209 0 0 84c0 69-56 125-125 125l-84 0 0-209z m-83 0l0 209-250 0 0-209 250 0z m375-382l0-118c0-115-93-208-208-208l-584 0c-115 0-208 93-208 208l0 584c0 115 93 208 208 208l584 0c115 0 208-93 208-208l0-118c1-2 1-5 1-7 0-3 0-5-1-8l0-318c1-3 1-5 1-8 0-2 0-5-1-7z m-708 591l-84 0c-69 0-125-56-125-125l0-84 209 0 0 209z m-209-292l0-250 209 0 0 250-209 0z m0-333l0-84c0-69 56-125 125-125l84 0 0 209-209 0z" horiz-adv-x="1000" />

<glyph glyph-name="ul" unicode="&#xe818;" d="M354 642h604a42 42 0 0 1 0 83h-604a42 42 0 0 1 0-83z m604-250h-604a42 42 0 0 1 0-84h604a42 42 0 0 1 0 84z m0-334h-604a42 42 0 0 1 0-83h604a42 42 0 0 1 0 83z" horiz-adv-x="1000" />

<glyph glyph-name="underline" unicode="&#xe819;" d="M938-35h-875a52 52 0 0 1 0-105h875a52 52 0 0 1 0 105z m-856 771h57a10 10 0 0 0 11-11v-355a350 350 0 0 1 700 0v355a10 10 0 0 0 11 10h57a52 52 0 0 1 0 105h-239a52 52 0 0 1 0-105h57a10 10 0 0 0 10-10v-355a246 246 0 0 0-492 0v355a10 10 0 0 0 10 10h57a52 52 0 1 1 0 105h-239a52 52 0 0 1 0-105z" horiz-adv-x="1000" />

<glyph glyph-name="undo" unicode="&#xe81a;" d="M741 693a523 523 0 0 1-540 36 10 10 0 0 0-12 2l-108 108a21 21 0 0 1-23 4 21 21 0 0 1-13-19v-279a21 21 0 0 1 21-21h279a21 21 0 0 1 15 36l-77 77a11 11 0 0 0-3 9 10 10 0 0 0 6 8 417 417 0 0 0 395-46 407 407 0 0 0 4-659 52 52 0 0 1 61-84 505 505 0 0 1 209 415 505 505 0 0 1-214 413z" horiz-adv-x="1000" />
</font>
</defs>
</svg>
